<svg width="42" height="46" viewBox="0 0 42 46" fill="none" xmlns="http://www.w3.org/2000/svg">
<path d="M18.3604 28.1056C18.9903 25.7941 19.8011 24.1779 21.0207 24.1779C22.116 24.1779 22.9479 25.5047 23.6425 27.4778C22.9407 26.0276 22.1119 25.0975 21.0671 25.0975C19.867 25.0975 19.0235 26.3032 18.3604 28.1056Z" fill="black"/>
<path d="M13.3988 44.1948C11.9975 44.425 9.54383 42.5344 6.68332 37.6412C6.68332 37.6412 4.70908 35.229 6.68332 28.7159C7.81026 24.9981 6.08842 22.3021 4.2455 19.4165C2.85985 17.2469 1.49285 15.6655 1.04261 12.0713C0.592376 8.47717 2.94597 3.41717 4.99997 2C4.21298 3.46414 2.72114 8.02138 2.98226 10.4585C3.30938 13.5116 4.61926 15.9096 5.86748 18.1946C7.52761 21.2337 9.07867 24.0732 8.06351 27.9888C6.28508 34.8485 8.06351 37.3891 8.06351 37.3891C10.1566 41.5754 12.2148 43.7376 13.3988 44.1948Z" fill="black"/>
<path d="M36.5 2C37.3083 3.39558 39.0591 8.07341 39.0591 10.4585C39.0591 13.8806 37.5305 16.8323 36.1137 19.5682C34.5852 22.5197 33.1868 25.2201 33.9779 27.9888C35.5023 33.3241 33.9779 37.3891 33.9779 37.3891C32.2668 41.6165 30.2146 44.2129 29.1507 44.757C30.4832 45.1477 32.9613 42.902 35.4509 37.6412C35.4509 37.6412 37.1432 33.7816 35.4509 28.7159C34.5727 26.087 36.1251 23.5231 37.8219 20.7207C39.3948 18.1231 41.0917 15.3205 41.0917 12.0713C41.0917 8.49171 38.4796 3.36405 36.5 2Z" fill="black"/>
<path d="M21.0207 24.1779C15.4313 24.1779 18.4292 58.1206 8.06349 37.3891C8.06349 37.3891 6.28505 34.8485 8.06349 27.9888C9.84192 21.1291 3.74442 17.5723 2.98224 10.4585C2.22005 3.34475 6.79322 0.550025 11.6204 1.05818C16.4476 1.56634 18.226 5.63134 21.0207 5.63134C23.8154 5.63134 26.102 1.05818 30.421 1.05818C34.7401 1.05818 39.0591 3.34475 39.0591 10.4585C39.0591 17.5723 32.4534 22.6535 33.9778 27.9888C35.5022 33.3241 33.9778 37.3891 33.9778 37.3891C25.3397 58.7304 26.6101 24.1779 21.0207 24.1779Z" stroke="black" stroke-width="2"/>
<path d="M29.5 5.61804L28.0672 10.0279L27.9549 10.3734H27.5916L22.9549 10.3734L26.7061 13.0988L27 13.3123L26.8877 13.6578L25.4549 18.0676L29.2061 15.3422L29.5 15.1287L29.7939 15.3422L33.5451 18.0676L32.1123 13.6578L32 13.3123L32.2939 13.0988L36.0451 10.3734L31.4084 10.3734H31.0451L30.9328 10.0279L29.5 5.61804Z" fill="#3DC2AA" stroke="black"/>
</svg>
